<svg width="24" height="24" viewBox="0 0 24 24" fill="none" xmlns="http://www.w3.org/2000/svg">
<path d="M9.57792 20.2267C10.2234 20.7909 11.0713 21.1333 12 21.1333C12.9287 21.1333 13.7766 20.7909 14.4221 20.2267M17.4926 8.44C17.4926 6.99722 16.9139 5.61354 15.8839 4.59334C14.8538 3.57314 13.4567 3 12 3C10.5433 3 9.14621 3.57314 8.11615 4.59334C7.08608 5.61354 6.5074 6.99722 6.5074 8.44C6.5074 11.2418 5.79379 13.1601 4.99663 14.4289C4.32421 15.4992 3.988 16.0343 4.00033 16.1836C4.01398 16.3489 4.04933 16.412 4.18383 16.5108C4.30529 16.6 4.85284 16.6 5.94794 16.6H18.0521C19.1472 16.6 19.6947 16.6 19.8162 16.5108C19.9507 16.412 19.986 16.3489 19.9997 16.1836C20.012 16.0343 19.6758 15.4992 19.0034 14.4289C18.2062 13.1601 17.4926 11.2418 17.4926 8.44Z" stroke="#121212" stroke-width="2" stroke-linecap="round" stroke-linejoin="round"/>
</svg>
